<svg id="visual" viewBox="0 0 1000 500" width="1000" height="500" xmlns="http://www.w3.org/2000/svg" xmlns:xlink="http://www.w3.org/1999/xlink" version="1.1"><path d="M0 411L27.8 413.8C55.7 416.7 111.3 422.3 166.8 422C222.3 421.7 277.7 415.3 333.2 412.5C388.7 409.7 444.3 410.3 500 413.7C555.7 417 611.3 423 666.8 427.3C722.3 431.7 777.7 434.3 833.2 434.3C888.7 434.3 944.3 431.7 972.2 430.3L1000 429L1000 501L972.2 501C944.3 501 888.7 501 833.2 501C777.7 501 722.3 501 666.8 501C611.3 501 555.7 501 500 501C444.3 501 388.7 501 333.2 501C277.7 501 222.3 501 166.8 501C111.3 501 55.7 501 27.8 501L0 501Z" fill="#20272f" stroke-linecap="round" stroke-linejoin="miter"></path></svg>